<?xml version="1.0" encoding="UTF-8" standalone="no"?>
<!-- Uploaded to: SVG Repo, www.svgrepo.com, Generator: SVG Repo Mixer Tools -->

<svg
   width="750"
   height="750"
   viewBox="0 0 30 30"
   fill="none"
   version="1.1"
   id="svg3"
   sodipodi:docname="illustrator.svg"
   inkscape:version="1.4.3 (0d15f75042, 2025-12-25)"
   xmlns:inkscape="http://www.inkscape.org/namespaces/inkscape"
   xmlns:sodipodi="http://sodipodi.sourceforge.net/DTD/sodipodi-0.dtd"
   xmlns="http://www.w3.org/2000/svg"
   xmlns:svg="http://www.w3.org/2000/svg">
  <defs
     id="defs3" />
  <sodipodi:namedview
     id="namedview3"
     pagecolor="#ffffff"
     bordercolor="#000000"
     borderopacity="0.25"
     inkscape:showpageshadow="2"
     inkscape:pageopacity="0.0"
     inkscape:pagecheckerboard="0"
     inkscape:deskcolor="#d1d1d1"
     inkscape:zoom="0.54447222"
     inkscape:cx="513.34116"
     inkscape:cy="241.51829"
     inkscape:window-width="1504"
     inkscape:window-height="987"
     inkscape:window-x="0"
     inkscape:window-y="0"
     inkscape:window-maximized="1"
     inkscape:current-layer="svg3" />
  <g
     id="g3"
     transform="translate(0.96103898,0.96103898)">
    <path
       d="m 0.03896104,10.172261 c 0,-3.54697 0,-5.32047 0.69029,-6.67524 C 1.336451,2.305331 2.305331,1.336451 3.497021,0.72925103 c 1.35477,-0.69029 3.12827,-0.69029 6.67524,-0.69029 h 7.7334 c 3.547,0 5.3205,0 6.6752,0.69029 1.1917,0.60719997 2.1606,1.57607997 2.7678,2.76776997 0.6903,1.35477 0.6903,3.12827 0.6903,6.67524 v 7.7334 c 0,3.547 0,5.3205 -0.6903,6.6752 -0.6072,1.1917 -1.5761,2.1606 -2.7678,2.7678 -1.3547,0.6903 -3.1282,0.6903 -6.6752,0.6903 h -7.7334 c -3.54697,0 -5.32047,0 -6.67524,-0.6903 -1.19169,-0.6072 -2.16057,-1.5761 -2.76776996,-2.7678 -0.69029,-1.3547 -0.69029,-3.1282 -0.69029,-6.6752 z"
       fill="#330000"
       id="path1" />
    <path
       d="m 13.607561,17.635261 h -4.3389 l -0.8828,2.8127 c -0.0245,0.1045 -0.1207,0.1785 -0.2254,0.1733 h -2.19766 c -0.12533,0 -0.16915,-0.0706 -0.13148,-0.2119 l 3.75664,-11.0966 c 0.0376,-0.1156 0.0752,-0.2472 0.1127,-0.3949 0.0492,-0.2571 0.0743,-0.5183 0.0752,-0.7802 -0.0108,-0.0774 0.0572,-0.14576 0.1313999,-0.13492 h 2.9866001 c 0.0875,0 0.1375,0.03212 0.1502,0.09632 l 4.2639,12.3296 c 0.0375,0.1285 0,0.1927 -0.1127,0.1926 h -2.4419 c -0.0856,0.0098 -0.1674,-0.0489 -0.1878,-0.1348 z m -3.6627001,-2.4274 h 2.9678001 c -0.4876,-1.6662 -1.0379,-3.3105 -1.4839,-4.9896 -0.4812,1.682 -1.0062,3.3572 -1.4839001,4.9896 z"
       fill="#ff9a00"
       id="path2" />
    <path
       d="m 19.843461,10.044761 c -0.1916,0.0079 -0.3826,-0.0258 -0.5607,-0.0988 -0.178,-0.073 -0.339,-0.1837998 -0.4724,-0.3249998 -0.133,-0.1474 -0.2364,-0.3202 -0.3041,-0.5087 -0.0677,-0.1884 -0.0984,-0.3887 -0.0904,-0.5894 -0.0068,-0.1987 0.0273,-0.3966 0.1001,-0.58085 0.0729,-0.18424 0.1828,-0.35065 0.3226,-0.48837 0.1384,-0.13629 0.3018,-0.24307 0.4808,-0.31416 0.1789,-0.0711 0.3698,-0.10509 0.5616,-0.10003 0.4509,0 0.8046,0.13807 1.0613,0.41419 0.1296,0.1435 0.2303,0.3118 0.2964,0.49527 0.066,0.18345 0.0962,0.37855 0.0886,0.57395 0.0079,0.2014 -0.0238,0.4025 -0.0932,0.5911 -0.0693,0.1886 -0.175,0.361 -0.3106,0.507 -0.1417,0.1433 -0.3109,0.2548998 -0.4967,0.3278998 -0.1859,0.0729 -0.3845,0.1056 -0.5833,0.0959 z m -1.2961,10.3838 v -9.2086 c 0,-0.1156 0.0499,-0.1734 0.1503,-0.1734 h 2.3104 c 0.1,0 0.1501,0.0578 0.1502,0.1734 v 9.2086 c 0,0.1286 -0.0501,0.1928 -0.1502,0.1927 h -2.2916 c -0.1127,0 -0.1691,-0.0642 -0.1691,-0.1927 z"
       fill="#ff9a00"
       id="path3" />
  </g>
</svg>
