<?xml version="1.0" encoding="UTF-8" standalone="no"?>
<svg
   viewBox="0 0 750 750"
   fill-rule="evenodd"
   clip-rule="evenodd"
   stroke-linejoin="round"
   stroke-miterlimit="2"
   version="1.1"
   id="svg2"
   sodipodi:docname="indesign.svg"
   inkscape:version="1.4.3 (0d15f75042, 2025-12-25)"
   width="750"
   height="750"
   xmlns:inkscape="http://www.inkscape.org/namespaces/inkscape"
   xmlns:sodipodi="http://sodipodi.sourceforge.net/DTD/sodipodi-0.dtd"
   xmlns="http://www.w3.org/2000/svg"
   xmlns:svg="http://www.w3.org/2000/svg">
  <defs
     id="defs2" />
  <sodipodi:namedview
     id="namedview2"
     pagecolor="#ffffff"
     bordercolor="#000000"
     borderopacity="0.25"
     inkscape:showpageshadow="2"
     inkscape:pageopacity="0.0"
     inkscape:pagecheckerboard="0"
     inkscape:deskcolor="#d1d1d1"
     inkscape:zoom="0.6015625"
     inkscape:cx="457.97403"
     inkscape:cy="393.14286"
     inkscape:window-width="1488"
     inkscape:window-height="971"
     inkscape:window-x="20"
     inkscape:window-y="20"
     inkscape:window-maximized="0"
     inkscape:current-layer="svg2" />
  <g
     id="g3"
     transform="translate(24.168831,24.792209)">
    <path
       d="m 124.78859,0.2077922 h 452.08242 c 68.54121,0 123.96016,56.8372538 123.96016,127.1360678 v 445.72646 c 0,70.30022 -55.41758,127.13747 -123.95879,127.13747 H 124.78859 C 56.24738,700.20779 0.83116883,643.37054 0.83116883,573.07032 V 127.34386 C 0.83116883,57.045046 56.24738,0.2077922 124.78859,0.2077922 Z"
       fill="#49021f"
       fill-rule="nonzero"
       id="path1"
       style="stroke-width:1.38461" />
    <g
       fill="#ff3366"
       fill-rule="nonzero"
       id="g2"
       transform="matrix(1.3671875,0,0,1.4022464,0.83116883,-22.22815)">
      <path
         d="m 186.026,146.56 v 219.732 c 0,2.347 -1.066,3.414 -2.986,3.414 h -41.814 c -1.92,0 -2.773,-1.067 -2.773,-3.414 V 146.56 c 0,-1.92 1.067,-2.774 2.987,-2.774 h 41.6 c 1.28,-0.213 2.56,0.64 2.773,2.134 0.213,0.213 0.213,0.426 0.213,0.64 z m 123.307,225.706 c -15.787,0.213 -31.574,-2.987 -45.867,-9.6 -13.44,-6.187 -24.533,-16.427 -32.213,-29.013 -7.894,-13.014 -11.734,-29.227 -11.734,-48.64 a 87.617,87.617 0 0 1 11.734,-45.014 c 8.106,-13.866 19.84,-25.386 33.92,-33.066 14.933,-8.32 32.853,-12.373 53.973,-12.373 1.067,0 2.56,0 4.48,0.213 1.92,0.213 4.053,0.213 6.613,0.427 v -67.414 c 0,-1.493 0.64,-2.346 2.134,-2.346 h 43.306 c 1.067,-0.214 1.92,0.64 2.133,1.493 v 203.52 c 0,3.84 0.214,8.106 0.427,12.8 0.427,4.48 0.64,8.746 0.853,12.373 0,1.493 -0.64,2.773 -2.133,3.413 -11.093,4.693 -22.827,8.107 -34.773,10.24 -10.667,1.92 -21.76,2.987 -32.853,2.987 z m 20.906,-42.667 v -93.866 c -1.92,-0.427 -3.84,-0.854 -5.76,-1.067 -2.346,-0.213 -4.693,-0.427 -7.04,-0.427 -8.32,0 -16.64,1.707 -24.106,5.547 a 47.825,47.825 0 0 0 -18.134,15.787 c -4.693,6.826 -7.04,16 -7.04,27.093 -0.213,7.467 1.067,14.933 3.627,21.973 2.133,5.76 5.333,10.88 9.6,15.147 4.053,3.84 8.96,6.827 14.507,8.533 5.76,1.92 11.733,2.774 17.706,2.774 3.2,0 6.187,-0.214 8.96,-0.427 a 18.166,18.166 0 0 0 7.68,-1.067 z"
         id="path2" />
    </g>
  </g>
</svg>
