<?xml version="1.0" encoding="UTF-8"?>
<svg id="Layer_2" xmlns="http://www.w3.org/2000/svg" version="1.1" viewBox="0 0 135 135">
  <!-- Generator: Adobe Illustrator 29.3.1, SVG Export Plug-In . SVG Version: 2.1.0 Build 151)  -->
  <defs>
    <style>
      .st0 {
        fill: #fff;
      }
    </style>
  </defs>
  <g id="Graphic_Elements">
    <path class="st0" d="M67.5,0C30.2,0,0,30.2,0,67.5s30.2,67.5,67.5,67.5,67.5-30.2,67.5-67.5S104.8,0,67.5,0ZM45.2,104.4c-4.8,0-9.6,0-14.4,0-.8,0-1-.2-1-1,0-17.1,0-34.2,0-51.3,0-.7.2-1,.9-1,4.9,0,9.7,0,14.6,0,.9,0,1.1.3,1.1,1.2,0,8.5,0,17,0,25.6h0c0,8.5,0,16.9,0,25.3,0,.9-.2,1.2-1.2,1.2ZM47.7,34.1c0,5.3-4.3,9.6-9.6,9.6s-9.6-4.3-9.6-9.6c0-5.3,4.3-9.6,9.6-9.6s9.6,4.3,9.6,9.5h0ZM108.5,103.3c0,.9-.2,1.1-1.1,1.1-4.8,0-9.6,0-14.4,0-.9,0-1-.2-1-1,0-8.9,0-17.7,0-26.6,0-2.2-.2-4.5-.8-6.6-1.1-4-4-6-8.2-5.8-5.7.3-8.7,3.1-9.4,8.9-.2,1.4-.3,2.8-.2,4.2,0,8.6,0,17.3,0,25.9,0,.9-.2,1.1-1.1,1.1-4.8,0-9.7,0-14.5,0-.8,0-1-.2-1-1,0-17.1,0-34.2,0-51.2,0-.9.3-1,1.1-1,4.6,0,9.2,0,13.8,0,.8,0,1.1.3,1,1.1,0,2,0,4.1,0,6.1,1.1-1.2,2-2.5,3.2-3.6,3.5-3.3,7.6-5,12.5-4.9,2.7,0,5.3.2,7.8,1,5.9,1.7,9.3,5.7,10.9,11.5,1.2,4.3,1.4,8.7,1.4,13.1,0,9.3,0,18.7,0,28Z"/>
  </g>
</svg>