<?xml version="1.0" encoding="UTF-8" standalone="no"?>
<!-- Uploaded to: SVG Repo, www.svgrepo.com, Generator: SVG Repo Mixer Tools -->

<svg
   width="750"
   height="750"
   viewBox="0 0 30 30"
   fill="none"
   version="1.1"
   id="svg3"
   sodipodi:docname="photoshop.svg"
   inkscape:version="1.4.3 (0d15f75042, 2025-12-25)"
   xmlns:inkscape="http://www.inkscape.org/namespaces/inkscape"
   xmlns:sodipodi="http://sodipodi.sourceforge.net/DTD/sodipodi-0.dtd"
   xmlns="http://www.w3.org/2000/svg"
   xmlns:svg="http://www.w3.org/2000/svg">
  <defs
     id="defs3" />
  <sodipodi:namedview
     id="namedview3"
     pagecolor="#ffffff"
     bordercolor="#000000"
     borderopacity="0.25"
     inkscape:showpageshadow="2"
     inkscape:pageopacity="0.0"
     inkscape:pagecheckerboard="0"
     inkscape:deskcolor="#d1d1d1"
     inkscape:zoom="0.1925"
     inkscape:cx="210.38961"
     inkscape:cy="371.42857"
     inkscape:window-width="1504"
     inkscape:window-height="987"
     inkscape:window-x="0"
     inkscape:window-y="0"
     inkscape:window-maximized="1"
     inkscape:current-layer="svg3" />
  <g
     id="g3"
     transform="translate(-1,-1)">
    <path
       d="M 2,12.1333 C 2,8.58633 2,6.81283 2.69029,5.45806 3.29749,4.26637 4.26637,3.29749 5.45806,2.69029 6.81283,2 8.58633,2 12.1333,2 h 7.7334 c 3.547,0 5.3205,0 6.6752,0.69029 1.1917,0.6072 2.1606,1.57608 2.7678,2.76777 C 30,6.81283 30,8.58633 30,12.1333 v 7.7334 c 0,3.547 0,5.3205 -0.6903,6.6752 -0.6072,1.1917 -1.5761,2.1606 -2.7678,2.7678 C 25.1872,30 23.4137,30 19.8667,30 H 12.1333 C 8.58633,30 6.81283,30 5.45806,29.3097 4.26637,28.7025 3.29749,27.7336 2.69029,26.5419 2,25.1872 2,23.4137 2,19.8667 Z"
       fill="#001e36"
       id="path1" />
    <path
       d="M 8,22.5162 V 10.2034 C 8,10.1197 8.035,10.0718 8.11667,10.0718 9.3223,10.0718 10.5274,10 11.7333,10 c 1.9569,0 4.0757,0.6691 4.8184,2.7162 0.175,0.5026 0.2683,1.0171 0.2683,1.5556 0,1.0291 -0.2333,1.8786 -0.7,2.5487 -1.3036,1.8718 -3.563,1.8427 -5.5883,1.8427 v 3.8411 c 0.0158,0.1137 -0.0811,0.1675 -0.175,0.1675 H 8.14 C 8.04667,22.6718 8,22.6239 8,22.5162 Z m 2.5433,-10.135 v 4.0205 c 0.8031,0.0588 1.6434,0.0652 2.415,-0.1914 0.8519,-0.2458 1.3184,-0.9831 1.3184,-1.8667 0.0236,-0.7529 -0.3866,-1.4753 -1.085,-1.747 -0.7623,-0.317 -1.8255,-0.336 -2.6484,-0.2154 z"
       fill="#31a8ff"
       id="path2" />
    <path
       d="m 24.0967,15.6074 c -0.353,-0.1861 -0.729,-0.3222 -1.1177,-0.4046 -0.4994,-0.1175 -2.4692,-0.5291 -2.47,0.5009 0.0175,0.575 0.9303,0.8567 1.3336,1.021 1.4159,0.4861 3.0181,1.355 2.9866,3.1017 0.0433,2.1744 -2.0635,3.0437 -3.8694,3.0439 -0.9401,0.0097 -1.9195,-0.1359 -2.7799,-0.5395 -0.0822,-0.0435 -0.135,-0.1364 -0.1315,-0.2312 V 20.019 c -0.0093,-0.0834 0.0803,-0.1563 0.1503,-0.0963 0.843,0.5098 1.8422,0.7574 2.8175,0.7706 0.4305,0 1.2837,-0.0417 1.2773,-0.6743 0,-0.607 -1.0207,-0.8861 -1.4276,-1.0403 -0.5898,-0.2105 -1.149,-0.5022 -1.6623,-0.8669 -0.7174,-0.5117 -1.1674,-1.3321 -1.1552,-2.2347 -0.0042,-2.0474 1.9351,-2.9664 3.6816,-2.9668 0.8164,-0.0068 1.6932,0.0537 2.4532,0.3853 0.1093,0.0321 0.1319,0.1473 0.1315,0.2504 v 1.9458 c 0.0069,0.1208 -0.1272,0.1619 -0.218,0.1156 z"
       fill="#31a8ff"
       id="path3" />
  </g>
</svg>
